<?xml version="1.0" standalone="no"?><!DOCTYPE svg PUBLIC "-//W3C//DTD SVG 1.1//EN" "http://www.w3.org/Graphics/SVG/1.1/DTD/svg11.dtd"><svg class="icon" width="200px" height="200.00px" viewBox="0 0 1024 1024" version="1.1" xmlns="http://www.w3.org/2000/svg"><path fill="#333333" d="M512 760.224L298.944 918.08c-22.08 16.32-53.536 12.16-70.272-9.376a47.904 47.904 0 0 1-8-43.968l82.144-259.936-219.136-163.328a48.096 48.096 0 0 1-9.376-68.544c9.472-12.096 24.192-19.2 39.776-19.2l268.64-0.448 81.408-254.88c8.224-25.792 36.32-40.16 62.784-32.16 15.744 4.8 28.064 16.8 32.96 32.16l81.408 254.88 268.64 0.448c27.712 0.032 50.112 21.952 50.08 48.96 0 15.2-7.296 29.536-19.68 38.784l-219.136 163.328 82.144 259.936c8.16 25.792-6.688 53.184-33.152 61.12a51.2 51.2 0 0 1-45.12-7.776L512 760.224z" /></svg>