<?xml version="1.0" standalone="no"?><!DOCTYPE svg PUBLIC "-//W3C//DTD SVG 1.1//EN" "http://www.w3.org/Graphics/SVG/1.1/DTD/svg11.dtd"><svg class="icon" width="200px" height="200.00px" viewBox="0 0 1024 1024" version="1.1" xmlns="http://www.w3.org/2000/svg"><path fill="#333333" d="M205.8 347c42.4-133.9 167.8-231.2 315.6-231.2 147.7 0 273.1 97.3 315.6 231.2h55C847.8 183.6 698.4 63 521.3 63c-177 0-326.4 120.6-370.5 284h55zM185.1 708.8h-1.4c-79.6 0-144.3-64.7-144.3-144.3v-82.8c0-79.6 64.7-144.3 144.3-144.3h1.3c38.8 0 70.3 31.5 70.3 70.3v230.9c0 38.7-31.5 70.2-70.2 70.2z m-1.4-315.7c-48.8 0-88.5 39.7-88.5 88.5v82.8c0 48.8 39.7 88.5 88.5 88.5h1.4c7.9 0 14.4-6.5 14.4-14.4V407.6c0-8-6.5-14.5-14.5-14.5h-1.3zM855.5 708.8h-1.4c-38.7 0-70.2-31.5-70.2-70.2v-231c0-38.8 31.5-70.3 70.3-70.3h1.3c79.6 0 144.3 64.7 144.3 144.3v82.8c0.1 79.6-64.7 144.4-144.3 144.4z m-1.3-315.7c-8 0-14.5 6.5-14.5 14.5v230.9c0 7.9 6.5 14.4 14.4 14.4h1.4c48.8 0 88.5-39.7 88.5-88.5v-82.8c0-48.8-39.7-88.5-88.5-88.5h-1.3zM569.7 858.5h-5.1c-15.4-0.2-27.7-12.9-27.5-28.3 0.2-15.3 12.7-27.5 27.9-27.5h0.4c165.4 2.4 264.9-136.4 265.9-137.8 8.9-12.6 26.3-15.6 38.9-6.8 12.6 8.8 15.7 26.2 6.9 38.8-4.8 6.6-115.3 161.6-307.4 161.6z" /></svg>